<svg width="64" height="64" viewBox="0 0 64 64" fill="none" xmlns="http://www.w3.org/2000/svg">
<circle cx="32" cy="32" r="32" fill="#651FFF"/>
<g clip-path="url(#clip0_506_604)">
<path d="M32 18C32 17.4475 32.45 17 33 17H35C35.55 17 36 17.4475 36 18V20C36 20.55 35.55 21 35 21H33C32.45 21 32 20.55 32 20V18ZM23 25C23.55 25 24 25.45 24 26V28C24 28.55 23.55 29 23 29H21C20.4475 29 20 28.55 20 28V26C20 25.45 20.4475 25 21 25H23ZM33 33C32.45 33 32 32.55 32 32V30C32 29.45 32.45 29 33 29H35C35.55 29 36 29.45 36 30V32C36 32.55 35.55 33 35 33H33ZM23 31C23.55 31 24 31.45 24 32V34C24 34.55 23.55 35 23 35H21C20.4475 35 20 34.55 20 34V32C20 31.45 20.4475 31 21 31H23ZM40 30C40 29.45 40.45 29 41 29H43C43.55 29 44 29.45 44 30V32C44 32.55 43.55 33 43 33H41C40.45 33 40 32.55 40 32V30ZM43 17C43.55 17 44 17.4475 44 18V20C44 20.55 43.55 21 43 21H41C40.45 21 40 20.55 40 20V18C40 17.4475 40.45 17 41 17H43ZM32 24C32 23.45 32.45 23 33 23H35C35.55 23 36 23.45 36 24V26C36 26.55 35.55 27 35 27H33C32.45 27 32 26.55 32 26V24ZM41 27C40.45 27 40 26.55 40 26V24C40 23.45 40.45 23 41 23H43C43.55 23 44 23.45 44 24V26C44 26.55 43.55 27 43 27H41Z" fill="white"/>
<path opacity="0.4" d="M44 13C46.2062 13 48 14.7906 48 17V41C48 43.2062 46.2062 45 44 45H20C17.7906 45 16 43.2062 16 41V25C16 22.7937 17.7906 21 20 21H28V17C28 14.7906 29.7937 13 32 13H44ZM20 34C20 34.55 20.4475 35 21 35H23C23.55 35 24 34.55 24 34V32C24 31.45 23.55 31 23 31H21C20.4475 31 20 31.45 20 32V34ZM35 33C35.55 33 36 32.55 36 32V30C36 29.45 35.55 29 35 29H33C32.45 29 32 29.45 32 30V32C32 32.55 32.45 33 33 33H35ZM40 32C40 32.55 40.45 33 41 33H43C43.55 33 44 32.55 44 32V30C44 29.45 43.55 29 43 29H41C40.45 29 40 29.45 40 30V32ZM21 25C20.4475 25 20 25.45 20 26V28C20 28.55 20.4475 29 21 29H23C23.55 29 24 28.55 24 28V26C24 25.45 23.55 25 23 25H21ZM32 20C32 20.55 32.45 21 33 21H35C35.55 21 36 20.55 36 20V18C36 17.4475 35.55 17 35 17H33C32.45 17 32 17.4475 32 18V20ZM41 17C40.45 17 40 17.4475 40 18V20C40 20.55 40.45 21 41 21H43C43.55 21 44 20.55 44 20V18C44 17.4475 43.55 17 43 17H41ZM32 26C32 26.55 32.45 27 33 27H35C35.55 27 36 26.55 36 26V24C36 23.45 35.55 23 35 23H33C32.45 23 32 23.45 32 24V26ZM43 27C43.55 27 44 26.55 44 26V24C44 23.45 43.55 23 43 23H41C40.45 23 40 23.45 40 24V26C40 26.55 40.45 27 41 27H43Z" fill="white"/>
</g>
<defs>
<clipPath id="clip0_506_604">
<rect width="32" height="32" fill="white" transform="translate(16 13)"/>
</clipPath>
</defs>
</svg>
