<svg width="343" height="75" viewBox="0 0 343 75" fill="none" xmlns="http://www.w3.org/2000/svg">
<path d="M147.456 38.6043C146.329 38.6043 145.409 37.6841 145.409 36.5568C145.409 35.418 146.329 34.5092 147.456 34.5092C148.583 34.5092 149.504 35.4295 149.504 36.5568C149.515 37.6841 148.595 38.6043 147.456 38.6043ZM147.456 32.5537C145.248 32.5537 143.453 34.3482 143.453 36.5568C143.453 38.7654 145.248 40.5599 147.456 40.5599C149.665 40.5599 151.459 38.7654 151.459 36.5568C151.459 34.3367 149.665 32.5537 147.456 32.5537Z" fill="#E2E4E9"/>
<path d="M129.074 38.6043C127.947 38.6043 127.027 37.6841 127.027 36.5568C127.027 35.418 127.947 34.5092 129.074 34.5092C130.202 34.5092 131.122 35.4295 131.122 36.5568C131.122 37.6841 130.202 38.6043 129.074 38.6043ZM129.074 32.5537C126.866 32.5537 125.071 34.3482 125.071 36.5568C125.071 38.7654 126.866 40.5599 129.074 40.5599C131.283 40.5599 133.077 38.7654 133.077 36.5568C133.066 34.3367 131.283 32.5537 129.074 32.5537Z" fill="#E2E4E9"/>
<path d="M143.2 38.7194C142.947 38.7884 142.556 38.869 142.418 38.869C141.728 38.869 141.59 38.6274 141.59 37.9832V34.2792H143.223V32.7378H141.59V30.5522H139.749L139.358 32.7378H138.081H137.978C136.931 32.7378 136.137 33.382 135.631 34.3828L134.998 32.7378H133.676V40.4104H135.93V37.0745C135.93 35.395 136.931 34.3137 138.104 34.2792H139.335V38.0983C139.335 39.8927 140.255 40.5599 141.751 40.5599C142.521 40.5599 143.12 40.3989 143.476 40.2838L143.2 38.7194Z" fill="#E2E4E9"/>
<path d="M154.197 35.1532V40.4101H152V32.7261H153.334L153.783 33.8994" fill="#E2E4E9"/>
<path d="M153.771 33.9111C154.439 33.1404 155.347 32.5537 156.417 32.5537C158.246 32.5537 158.994 34.0146 158.994 35.3605V40.4103H156.739V35.4295C156.739 34.7738 156.187 34.4172 155.6 34.4172C154.968 34.4172 154.565 34.7853 154.208 35.1649" fill="#E2E4E9"/>
<path d="M116.317 29.9541H118.837L122.287 36.5224V29.9541H124.37V40.4104H122.092L118.399 33.175V40.4104H116.317V29.9541Z" fill="#E2E4E9"/>
<path d="M158.994 32.7378V32.8873H159.201V33.612H159.373V32.8873H159.592V32.7378H158.994Z" fill="#E2E4E9"/>
<path d="M160.248 32.7378L160.098 33.3129L159.937 32.7378H159.707V33.612H159.856V32.9218L160.041 33.612H160.156L160.34 32.9218V33.612H160.478V32.7378H160.248Z" fill="#E2E4E9"/>
<path d="M119.044 46.5758C119.044 45.9087 118.837 45.1264 118.077 45.1264C117.721 45.1264 117.399 45.2875 117.111 45.5866V47.7837C117.376 48.0712 117.617 48.2208 117.985 48.2208C118.664 48.2093 119.044 47.6226 119.044 46.5758ZM116.962 48.2093L116.8 48.7039H116.386V42.9639H117.111V45.0574C117.353 44.7929 117.744 44.5168 118.238 44.5168C119.331 44.5168 119.814 45.5981 119.814 46.5758C119.814 47.8872 119.136 48.7729 118.123 48.7729C117.594 48.7729 117.238 48.5544 116.962 48.2093Z" fill="#A0A0A0"/>
<path d="M120.274 44.5977H121.011C121.011 44.5977 122.046 48.0601 122.046 48.0716L123.012 44.5977H123.725L122.345 49.0148C122.103 49.774 121.701 50.1997 120.907 50.1997C120.746 50.1997 120.573 50.1766 120.412 50.1306L120.504 49.613C120.608 49.6245 120.712 49.659 120.85 49.659C121.275 49.659 121.597 49.4635 121.758 48.9573L120.274 44.5977Z" fill="#A0A0A0"/>
<path d="M125.876 48.1058L126.233 47.5996C126.59 47.8642 127.096 48.1518 127.855 48.1518C128.603 48.1518 129.04 47.7952 129.04 47.174C129.04 46.4838 128.511 46.2653 127.751 46.0007C126.935 45.7131 126.187 45.345 126.187 44.2982C126.187 43.3665 126.923 42.8604 127.89 42.8604C128.58 42.8604 128.982 42.9754 129.431 43.2284L129.132 43.7806C128.775 43.585 128.396 43.47 127.878 43.47C127.268 43.47 126.854 43.7116 126.854 44.2867C126.854 44.8964 127.257 45.0919 128.097 45.391C128.902 45.6671 129.753 46.0237 129.753 47.151C129.753 48.1518 129.04 48.7499 127.866 48.7499C126.912 48.7729 126.256 48.4278 125.876 48.1058Z" fill="#A0A0A0"/>
<path d="M130.167 44.5977H130.903C130.903 44.5977 131.939 48.0601 131.939 48.0716L132.905 44.5977H133.618L132.238 49.0148C131.996 49.774 131.593 50.1997 130.8 50.1997C130.639 50.1997 130.466 50.1766 130.305 50.1306L130.397 49.613C130.501 49.6245 130.604 49.659 130.742 49.659C131.168 49.659 131.49 49.4635 131.651 48.9573L130.167 44.5977Z" fill="#A0A0A0"/>
<path d="M138.714 44.5166C139.542 44.5166 139.761 45.2183 139.761 45.897V48.7037H139.036V45.897C139.036 45.4944 138.967 45.1263 138.472 45.1263C138.139 45.1263 137.782 45.3333 137.426 45.6899V48.7037H136.701V45.897C136.701 45.4944 136.632 45.1263 136.137 45.1263C135.792 45.1263 135.424 45.3678 135.09 45.7014V48.7037H134.366V44.5971H134.791L134.975 45.2643C135.355 44.8502 135.815 44.5166 136.367 44.5166C136.919 44.5166 137.149 44.8157 137.311 45.2298C137.69 44.8042 138.185 44.5166 138.714 44.5166Z" fill="#A0A0A0"/>
<path d="M143.108 46.5872C142.291 46.7367 141.762 46.9092 141.555 47.1623C141.452 47.2889 141.429 47.4039 141.429 47.5764C141.429 47.979 141.624 48.2091 142.061 48.2091C142.475 48.2091 142.843 48.002 143.108 47.8065V46.5872ZM143.108 45.9315C143.108 45.3793 142.935 45.1033 142.337 45.1033C141.923 45.1033 141.555 45.2643 141.164 45.4599L140.899 44.9767C141.325 44.7122 141.785 44.5166 142.383 44.5166C143.407 44.5166 143.81 45.0687 143.81 45.989V48.7152H143.396L143.212 48.2206C142.924 48.5082 142.475 48.7728 141.946 48.7728C141.222 48.7728 140.692 48.3241 140.692 47.6339C140.692 47.1853 140.865 46.8632 141.245 46.6332C141.613 46.4031 142.268 46.2421 143.108 46.1155V45.9315Z" fill="#A0A0A0"/>
<path d="M145.018 44.5971H145.443L145.627 45.2758C146.007 44.8502 146.49 44.5166 147.1 44.5166C147.985 44.5166 148.215 45.2183 148.215 45.897V48.7037H147.491V45.897C147.491 45.4944 147.387 45.1263 146.858 45.1263C146.478 45.1263 146.076 45.3678 145.742 45.7129V48.7037H145.018V44.5971Z" fill="#A0A0A0"/>
<path d="M148.986 45.1038V44.5976H149.619L149.803 43.4243H150.32V44.5976H151.241V45.1038H150.32V47.6344C150.32 48.014 150.389 48.2211 150.781 48.2211C150.942 48.2211 151.068 48.1866 151.252 48.1406L151.356 48.6352C151.195 48.7042 150.942 48.7617 150.689 48.7617C149.941 48.7617 149.607 48.4051 149.607 47.669V45.0923H148.986V45.1038Z" fill="#A0A0A0"/>
<path d="M154.461 46.3686C154.438 45.5059 154.151 45.0572 153.576 45.0572C153.058 45.0572 152.713 45.4599 152.656 46.3686H154.461ZM153.679 48.1976C154.151 48.1976 154.45 48.0135 154.795 47.795L155.094 48.2321C154.692 48.5542 154.323 48.7728 153.61 48.7728C152.552 48.7728 151.873 47.956 151.873 46.6562C151.873 45.3908 152.529 44.5166 153.553 44.5166C154.611 44.5166 155.175 45.3103 155.175 46.6792V46.8517H152.621C152.679 47.726 152.989 48.1976 153.679 48.1976Z" fill="#A0A0A0"/>
<path d="M155.842 46.6792C155.842 45.6209 156.314 44.5166 157.579 44.5166C158.108 44.5166 158.499 44.6431 158.867 44.9537L158.557 45.4368C158.292 45.2413 157.981 45.1033 157.59 45.1033C156.728 45.1033 156.601 45.989 156.601 46.6907C156.601 47.3694 156.751 48.1976 157.613 48.1976C158.028 48.1976 158.315 48.0365 158.591 47.8065L158.936 48.2321C158.637 48.5312 158.223 48.7842 157.579 48.7842C156.325 48.7727 155.842 47.703 155.842 46.6792Z" fill="#A0A0A0"/>
<path d="M100.731 31.1961C98.5451 31.1961 96.4861 32.0474 94.9332 33.6003C93.3802 35.1532 92.529 37.2122 92.529 39.3978C92.529 41.5834 93.3802 43.6425 94.9332 45.1954C96.4861 46.7483 98.5451 47.5995 100.731 47.5995C102.916 47.5995 104.975 46.7483 106.528 45.1954C108.07 43.6425 108.921 41.5834 108.932 39.3978C108.932 37.2122 108.081 35.1532 106.528 33.6003C104.975 32.0589 102.916 31.1961 100.731 31.1961ZM100.731 51.384C94.1279 51.384 88.7445 46.0006 88.7445 39.3978C88.7445 32.7836 94.1279 27.4116 100.731 27.4116C107.333 27.4116 112.717 32.7836 112.717 39.3978C112.717 46.0006 107.333 51.384 100.731 51.384Z" fill="#FFC20E"/>
<path d="M114.718 25.5601H113.787V26.4918H114.718V25.5601Z" fill="#FFC20E"/>
<path d="M114.718 23.6963H113.787V24.628H114.718V23.6963Z" fill="#FFC20E"/>
<path d="M112.038 26.4917H111.164V27.4004H112.038V26.4917Z" fill="white"/>
<path d="M110.313 28.2861H109.427V29.1604H110.313V28.2861Z" fill="#E2E4E9"/>
<path d="M113.005 27.4004H112.027V28.2746H113.005V27.4004Z" fill="#E2E4E9"/>
<path d="M109.427 27.4463H108.553V28.286H109.427V27.4463Z" fill="#E2E4E9"/>
<path d="M112.038 28.2861H111.164V29.1604H112.038V28.2861Z" fill="#E2E4E9"/>
<path d="M113.787 24.6396H112.866V25.5714H113.787V24.6396Z" fill="#E2E4E9"/>
<path d="M112.867 25.5601H111.164V26.4918H112.867V25.5601Z" fill="#E2E4E9"/>
<path d="M111.164 26.4917H110.313V28.2862H111.164V26.4917Z" fill="#E2E4E9"/>
<path d="M110.313 29.1602V30.0344H109.427V29.1602H107.966V29.7928H107.184V30.575H108.058V31.4493H107.184V30.575H106.252V31.9439H105.378V32.8181H104.791V33.6924H104.147C103.422 34.7621 101.628 38.098 101.076 39.4554C99.1088 36.7177 97.5789 35.6364 96.3826 35.2453C95.7384 35.0497 94.9562 35.7514 96.026 36.8672C98.4991 39.5934 99.2814 41.8365 100.029 43.6425C100.432 44.5858 102.215 44.7353 102.571 43.7691C103.33 41.733 104.435 39.4324 105.746 37.5574V36.5796H106.448V35.7054H107.184V34.6816H108.058V33.7039H107.172V32.8066H108.058V33.7039H108.921V32.8181H109.611V31.7483H110.393V31.0122H111.141V29.1602H110.313Z" fill="#E2E4E9"/>
<g clip-path="url(#clip0_339_344)">
<path d="M186.096 35.1452C186.096 34.5898 186.596 34.3762 187.424 34.3762C188.612 34.3762 190.112 34.7038 191.299 35.2876V31.941C190.002 31.471 188.721 31.2859 187.424 31.2859C184.252 31.2859 182.143 32.7954 182.143 35.3161C182.143 39.2467 188.08 38.6201 188.08 40.3148C188.08 40.9699 187.455 41.1835 186.58 41.1835C185.283 41.1835 183.627 40.6993 182.315 40.0442V43.4336C183.768 44.0033 185.237 44.2454 186.58 44.2454C189.83 44.2454 192.065 42.7785 192.065 40.2293C192.049 35.9855 186.096 36.7403 186.096 35.1452ZM196.658 28.4376L192.846 29.1782L192.83 40.5854C192.83 42.6931 194.565 44.2454 196.877 44.2454C198.158 44.2454 199.096 44.0317 199.612 43.7754V40.8844C199.112 41.0696 196.643 41.7247 196.643 39.617V34.5613H199.612V31.528H196.643L196.658 28.4376ZM204.471 32.5818L204.221 31.528H200.846V43.989H204.752V35.544C205.674 34.4474 207.237 34.6468 207.721 34.8034V31.528C207.221 31.3571 205.393 31.0438 204.471 32.5818ZM208.674 31.528H212.596V43.989H208.674V31.528ZM208.674 30.4456L212.596 29.6766V26.7856L208.674 27.5404V30.4456ZM220.752 31.2859C219.221 31.2859 218.237 31.941 217.69 32.3967L217.487 31.5137H214.049V48.119L217.955 47.3642L217.971 43.3339C218.533 43.7042 219.362 44.2311 220.737 44.2311C223.533 44.2311 226.08 42.1804 226.08 37.6659C226.065 33.536 223.487 31.2859 220.752 31.2859ZM219.815 41.0981C218.893 41.0981 218.346 40.799 217.971 40.4287L217.955 35.1452C218.362 34.7322 218.924 34.4474 219.815 34.4474C221.237 34.4474 222.221 35.9 222.221 37.7656C222.221 39.6739 221.252 41.0981 219.815 41.0981ZM238.393 37.8083C238.393 34.1626 236.455 31.2859 232.752 31.2859C229.033 31.2859 226.783 34.1626 226.783 37.7799C226.783 42.0665 229.44 44.2311 233.252 44.2311C235.112 44.2311 236.518 43.8466 237.58 43.3054V40.4572C236.518 40.9414 235.299 41.2405 233.752 41.2405C232.237 41.2405 230.893 40.7563 230.721 39.0758H238.362C238.362 38.8907 238.393 38.1501 238.393 37.8083ZM230.674 36.4554C230.674 34.8462 231.752 34.1768 232.737 34.1768C233.69 34.1768 234.705 34.8462 234.705 36.4554H230.674Z" fill="#6772E5"/>
</g>
<path fill-rule="evenodd" clip-rule="evenodd" d="M268.236 34.2886H273.777C276.753 34.2886 277.873 35.8595 277.7 38.1675C277.414 41.9778 275.205 44.0859 272.276 44.0859H270.796C270.395 44.0859 270.124 44.3634 270.015 45.1153L269.388 49.4866C269.346 49.77 269.203 49.9341 268.988 49.9565H265.507C265.179 49.9565 265.063 49.6954 265.149 49.13L267.272 35.1166C267.355 34.5556 267.65 34.2886 268.236 34.2886Z" fill="#009EE3"/>
<path fill-rule="evenodd" clip-rule="evenodd" d="M292.294 34.0283C294.163 34.0283 295.889 35.0861 295.653 37.7224C295.366 40.8555 293.757 42.5891 291.218 42.5966H289C288.681 42.5966 288.526 42.8681 288.443 43.4246L288.014 46.2698C287.95 46.6995 287.738 46.9113 287.426 46.9113H285.362C285.033 46.9113 284.919 46.692 284.992 46.2012L286.695 34.7982C286.78 34.2372 286.981 34.0283 287.349 34.0283H292.29H292.294ZM288.932 40.1334H290.613C291.665 40.0916 292.363 39.3322 292.433 37.9626C292.476 37.1167 291.928 36.5109 291.057 36.5154L289.475 36.5229L288.932 40.1334ZM301.264 46.0385C301.453 45.8595 301.645 45.767 301.617 45.9878L301.55 46.516C301.516 46.792 301.62 46.9382 301.866 46.9382H303.7C304.009 46.9382 304.159 46.8084 304.235 46.3101L305.365 38.913C305.422 38.5415 305.335 38.3595 305.065 38.3595H303.048C302.866 38.3595 302.777 38.4654 302.73 38.7548L302.656 39.2099C302.617 39.4471 302.513 39.4889 302.415 39.2502C302.074 38.4057 301.201 38.0268 299.984 38.0566C297.156 38.1178 295.249 40.3572 295.045 43.2277C294.887 45.4477 296.412 47.1918 298.423 47.1918C299.882 47.1918 300.535 46.7442 301.27 46.043L301.264 46.0385ZM299.728 44.9002C298.51 44.9002 297.662 43.8871 297.838 42.6458C298.014 41.4045 299.153 40.3915 300.37 40.3915C301.587 40.3915 302.436 41.4045 302.26 42.6458C302.084 43.8871 300.946 44.9002 299.728 44.9002ZM308.954 38.3356H307.094C306.711 38.3356 306.555 38.634 306.677 39.001L308.985 46.052L306.721 49.4074C306.531 49.6878 306.678 49.943 306.946 49.943H309.035C309.157 49.9577 309.28 49.9355 309.391 49.8792C309.501 49.8228 309.593 49.7347 309.656 49.6252L316.757 39.0025C316.976 38.6757 316.873 38.3326 316.514 38.3326H314.535C314.196 38.3326 314.06 38.4728 313.866 38.7668L310.905 43.2426L309.582 38.7563C309.505 38.4848 309.311 38.3356 308.955 38.3356H308.954Z" fill="#113984"/>
<path fill-rule="evenodd" clip-rule="evenodd" d="M324.143 34.0284C326.013 34.0284 327.738 35.0862 327.502 37.7225C327.216 40.8556 325.607 42.5893 323.068 42.5967H320.851C320.532 42.5967 320.377 42.8683 320.294 43.4248L319.865 46.2699C319.801 46.6996 319.589 46.9115 319.277 46.9115H317.213C316.884 46.9115 316.77 46.6922 316.843 46.2013L318.549 34.7952C318.634 34.2343 318.835 34.0254 319.203 34.0254H324.143V34.0284ZM320.782 40.1335H322.463C323.514 40.0917 324.212 39.3323 324.282 37.9627C324.325 37.1167 323.777 36.511 322.906 36.5155L321.324 36.5229L320.782 40.1335ZM333.114 46.0387C333.302 45.8597 333.494 45.7672 333.467 45.988L333.4 46.5161C333.365 46.7921 333.47 46.9383 333.716 46.9383H335.55C335.858 46.9383 336.009 46.8085 336.084 46.3102L337.215 38.9131C337.272 38.5416 337.184 38.3596 336.914 38.3596H334.9C334.718 38.3596 334.63 38.4655 334.583 38.7549L334.508 39.21C334.47 39.4472 334.365 39.489 334.268 39.2503C333.926 38.4058 333.053 38.0268 331.836 38.0567C329.008 38.1179 327.102 40.3573 326.897 43.2278C326.74 45.4479 328.264 47.192 330.276 47.192C331.735 47.192 332.387 46.7444 333.122 46.0432L333.114 46.0387ZM331.579 44.9003C330.361 44.9003 329.513 43.8873 329.689 42.646C329.865 41.4047 331.004 40.3916 332.221 40.3916C333.438 40.3916 334.286 41.4047 334.111 42.646C333.935 43.8873 332.796 44.9003 331.579 44.9003ZM340.037 46.9503H337.92C337.883 46.952 337.846 46.9452 337.812 46.9304C337.778 46.9156 337.748 46.8932 337.723 46.8646C337.698 46.8361 337.68 46.8023 337.669 46.7655C337.658 46.7287 337.655 46.6899 337.661 46.6519L339.52 34.3641C339.538 34.2802 339.583 34.2051 339.646 34.1509C339.71 34.0967 339.79 34.0667 339.872 34.0657H341.989C342.026 34.064 342.063 34.0707 342.097 34.0855C342.131 34.1003 342.161 34.1228 342.186 34.1513C342.211 34.1798 342.229 34.2137 342.24 34.2504C342.251 34.2872 342.253 34.326 342.248 34.3641L340.389 46.6519C340.371 46.7363 340.327 46.8121 340.263 46.8669C340.199 46.9216 340.119 46.9521 340.037 46.9533V46.9503Z" fill="#009EE3"/>
<path fill-rule="evenodd" clip-rule="evenodd" d="M264.771 29.4644H270.318C271.88 29.4644 273.734 29.5166 274.972 30.6579C275.801 31.4203 276.235 32.6333 276.135 33.9402C275.795 38.3579 273.262 40.8331 269.863 40.8331H267.128C266.662 40.8331 266.354 41.1554 266.223 42.0267L265.459 47.0994C265.409 47.4276 265.273 47.6215 265.03 47.6454H261.607C261.228 47.6454 261.093 47.347 261.192 46.6876L263.652 30.4282C263.751 29.7747 264.096 29.4644 264.771 29.4644Z" fill="#113984"/>
<path fill-rule="evenodd" clip-rule="evenodd" d="M266.302 41.5116L267.27 35.1157C267.355 34.5547 267.649 34.2861 268.236 34.2861H273.777C274.694 34.2861 275.437 34.4353 276.017 34.7113C275.461 38.6441 273.022 40.8283 269.829 40.8283H267.099C266.733 40.8298 266.464 41.0208 266.302 41.5116Z" fill="#172C70"/>
<g clip-path="url(#clip1_339_344)">
<rect y="25.4463" width="65.625" height="24.1071" rx="4" fill="#E2E8F0"/>
<path d="M0 29.4463C0 27.2372 1.79086 25.4463 4 25.4463H24.7642V49.5534H4C1.79086 49.5534 0 47.7626 0 45.5534V29.4463Z" fill="#2050E0"/>
<path d="M12.3821 29.0625L12.6629 29.9472H13.5717L12.8365 30.494L13.1173 31.3787L12.3821 30.8316L11.647 31.3787L11.9278 30.494L11.1924 29.9472H12.1012L12.3821 29.0625Z" fill="#F8D12E"/>
<path d="M12.3821 43.6211L12.6629 44.5061H13.5717L12.8365 45.0527L13.1173 45.9373L12.3821 45.3906L11.647 45.9373L11.9278 45.0527L11.1924 44.5061H12.1012L12.3821 43.6211Z" fill="#F8D12E"/>
<path d="M16.1209 30.3862L16.4016 31.2709H17.3106L16.5752 31.8179L16.8561 32.7024L16.1209 32.1554L15.3856 32.7024L15.6664 31.8179L14.9313 31.2709H15.8402L16.1209 30.3862Z" fill="#F8D12E"/>
<path d="M19.1438 39.9106L19.4244 40.7956H20.3333L19.598 41.3424L19.879 42.2268L19.1438 41.6803L18.4084 42.2268L18.6893 41.3424L17.954 40.7956H18.8629L19.1438 39.9106Z" fill="#F8D12E"/>
<path d="M19.8599 36.3418L20.1406 37.2264H21.0495L20.3142 37.7731L20.595 38.658L19.8599 38.1115L19.1246 38.658L19.4056 37.7731L18.6702 37.2264H19.5789L19.8599 36.3418Z" fill="#F8D12E"/>
<path d="M4.90442 36.3418L5.18512 37.2264H6.0939L5.35857 37.7731L5.63961 38.658L4.90442 38.1115L4.16904 38.658L4.44993 37.7731L3.7146 37.2264H4.62353L4.90442 36.3418Z" fill="#F8D12E"/>
<path d="M5.52356 39.9106L5.80426 40.7956H6.71304L5.9779 41.3424L6.25855 42.2268L5.52356 41.6803L4.78823 42.2268L5.06907 41.3424L4.33374 40.7956H5.24272L5.52356 39.9106Z" fill="#F8D12E"/>
<path d="M19.1438 32.6787L19.4244 33.5637H20.3333L19.598 34.1104L19.879 34.9949L19.1438 34.4484L18.4084 34.9949L18.6893 34.1104L17.954 33.5637H18.8629L19.1438 32.6787Z" fill="#F8D12E"/>
<path d="M5.83313 32.6787L6.11383 33.5637H7.02261L6.28747 34.1104L6.56812 34.9949L5.83313 34.4484L5.0978 34.9949L5.37864 34.1104L4.64331 33.5637H5.55229L5.83313 32.6787Z" fill="#F8D12E"/>
<path d="M16.8008 42.9595L17.0815 43.844H17.9904L17.2549 44.3911L17.5359 45.2756L16.8008 44.729L16.0653 45.2756L16.3464 44.3911L15.6111 43.844H16.52L16.8008 42.9595Z" fill="#F8D12E"/>
<path d="M8.64317 30.3862L8.92381 31.2709H9.83279L9.09746 31.8179L9.3785 32.7024L8.64317 32.1554L7.90798 32.7024L8.18882 31.8179L7.45349 31.2709H8.36228L8.64317 30.3862Z" fill="#F8D12E"/>
<path d="M7.96326 42.9595L8.24408 43.8445H9.15298L8.41771 44.391L8.69853 45.2756L7.96326 44.7293L7.22813 45.2756L7.50895 44.391L6.77368 43.8445H7.68239L7.96326 42.9595Z" fill="#F8D12E"/>
<path fill-rule="evenodd" clip-rule="evenodd" d="M29.0979 34.8454C29.0979 36.5474 30.4371 37.6152 32.0823 37.6152C33.1239 37.6152 33.9258 37.2058 34.521 36.5715V34.4761H31.8591V35.6242H33.1239V36.0738C32.9007 36.2504 32.5122 36.3949 32.0823 36.3949C31.1812 36.3949 30.5446 35.7205 30.5446 34.8454C30.5446 33.9704 31.1812 33.296 32.0823 33.296C32.6031 33.296 33.0247 33.577 33.2479 33.9302L34.4384 33.3201C34.0333 32.6537 33.2893 32.0757 32.0823 32.0757C30.4371 32.0757 29.0979 33.1434 29.0979 34.8454ZM35.356 37.5189V32.164H37.6707C39.4068 32.164 40.6551 33.1756 40.6551 34.8374C40.6551 36.4993 39.4068 37.5189 37.679 37.5189H35.356ZM36.7779 36.3146H37.6707C38.638 36.3146 39.2001 35.6322 39.2001 34.8374C39.2001 34.0105 38.6876 33.3682 37.679 33.3682H36.7779V36.3146ZM41.3661 37.5189V32.164H44.1272C45.3673 32.164 46.0452 32.9749 46.0452 33.9463C46.0452 34.9097 45.3673 35.7045 44.1272 35.7045H42.788V37.5189H41.3661ZM44.5985 33.9382C44.5985 33.5689 44.3174 33.3281 43.9371 33.3281H42.788V34.5323H43.9371C44.3174 34.5323 44.5985 34.2995 44.5985 33.9382ZM49.757 37.5189L48.8311 35.7045H48.1036V37.5189H46.6817V32.164H49.4429C50.6664 32.164 51.3608 32.9508 51.3608 33.9463C51.3608 34.8776 50.7739 35.3753 50.2613 35.5519L51.3856 37.5189H49.757ZM49.9141 33.9302C49.9141 33.5609 49.6 33.3281 49.228 33.3281H48.1036V34.5323H49.228C49.6 34.5323 49.9141 34.2995 49.9141 33.9302Z" fill="#2B3945"/>
<path fill-rule="evenodd" clip-rule="evenodd" d="M14.0625 36.9792H14.3278C14.6208 36.9792 14.8585 37.2185 14.8585 37.5134V39.6502C14.8585 39.9451 14.6208 40.1844 14.3278 40.1844H10.4363C10.1433 40.1844 9.90564 39.9451 9.90564 39.6502V37.5134C9.90564 37.2185 10.1433 36.9792 10.4363 36.9792H10.7016V36.1779C10.7016 35.2453 11.4556 34.4863 12.3821 34.4863C13.3085 34.4863 14.0625 35.2453 14.0625 36.1779V36.9792ZM11.5861 36.1779V36.9792H13.178V36.1779C13.178 35.7361 12.821 35.3767 12.3821 35.3767C11.9432 35.3767 11.5861 35.7361 11.5861 36.1779Z" fill="white"/>
<path d="M32.2811 41.4249C32.2548 41.342 32.2187 41.2658 32.1727 41.1963C32.1266 41.1268 32.0675 41.0666 31.9951 41.0158C31.9228 40.965 31.8373 40.9262 31.7387 40.8995C31.6434 40.8701 31.5316 40.8554 31.4034 40.8554C31.216 40.8554 31.0533 40.8861 30.9152 40.9476C30.7804 41.0091 30.6703 41.092 30.5848 41.1963C30.4993 41.2979 30.4352 41.4142 30.3925 41.5452C30.353 41.6762 30.3333 41.8099 30.3333 41.9463C30.3333 42.0827 30.353 42.2163 30.3925 42.3474C30.4352 42.4784 30.4993 42.596 30.5848 42.7003C30.6703 42.8019 30.7804 42.8835 30.9152 42.945C31.0533 43.0064 31.216 43.0372 31.4034 43.0372C31.5415 43.0372 31.6631 43.0185 31.7683 42.981C31.8735 42.9409 31.9639 42.8875 32.0395 42.8206C32.1151 42.7511 32.1743 42.6709 32.217 42.58C32.2598 42.4891 32.2877 42.3915 32.3009 42.2872H32.9025C32.8893 42.4583 32.8433 42.6147 32.7644 42.7564C32.6888 42.8982 32.5852 43.0212 32.4537 43.1254C32.3222 43.227 32.1677 43.3059 31.9902 43.3621C31.8127 43.4182 31.6171 43.4463 31.4034 43.4463C31.1404 43.4463 30.9037 43.4075 30.6933 43.33C30.4862 43.2498 30.3103 43.1415 30.1657 43.0051C30.021 42.8687 29.9092 42.7097 29.8303 42.5278C29.7547 42.346 29.7169 42.1522 29.7169 41.9463C29.7169 41.7431 29.7547 41.5506 29.8303 41.3687C29.9092 41.1869 30.021 41.0278 30.1657 40.8915C30.3103 40.7551 30.4862 40.6468 30.6933 40.5666C30.9037 40.4864 31.1404 40.4463 31.4034 40.4463C31.6006 40.4463 31.7864 40.469 31.9606 40.5145C32.1349 40.5573 32.2877 40.6214 32.4192 40.707C32.554 40.7899 32.6625 40.8915 32.7447 41.0118C32.8269 41.1321 32.8778 41.2698 32.8975 41.4249H32.2811Z" fill="#2B3945"/>
<path d="M35.0854 40.8554C34.898 40.8554 34.7353 40.8861 34.5972 40.9476C34.4624 41.0091 34.3523 41.092 34.2668 41.1963C34.1814 41.2979 34.1173 41.4142 34.0745 41.5452C34.0351 41.6762 34.0153 41.8099 34.0153 41.9463C34.0153 42.0827 34.0351 42.2163 34.0745 42.3474C34.1173 42.4784 34.1814 42.596 34.2668 42.7003C34.3523 42.8019 34.4624 42.8835 34.5972 42.945C34.7353 43.0064 34.898 43.0372 35.0854 43.0372C35.2728 43.0372 35.4339 43.0064 35.5687 42.945C35.7067 42.8835 35.8185 42.8019 35.904 42.7003C35.9895 42.596 36.0519 42.4784 36.0914 42.3474C36.1341 42.2163 36.1555 42.0827 36.1555 41.9463C36.1555 41.8099 36.1341 41.6762 36.0914 41.5452C36.0519 41.4142 35.9895 41.2979 35.904 41.1963C35.8185 41.092 35.7067 41.0091 35.5687 40.9476C35.4339 40.8861 35.2728 40.8554 35.0854 40.8554ZM35.0854 40.4463C35.3484 40.4463 35.5835 40.4864 35.7906 40.5666C36.001 40.6468 36.1785 40.7551 36.3231 40.8915C36.4678 41.0278 36.5779 41.1869 36.6535 41.3687C36.7324 41.5506 36.7719 41.7431 36.7719 41.9463C36.7719 42.1522 36.7324 42.346 36.6535 42.5278C36.5779 42.7097 36.4678 42.8687 36.3231 43.0051C36.1785 43.1415 36.001 43.2498 35.7906 43.33C35.5835 43.4075 35.3484 43.4463 35.0854 43.4463C34.8224 43.4463 34.5857 43.4075 34.3753 43.33C34.1682 43.2498 33.9923 43.1415 33.8477 43.0051C33.703 42.8687 33.5913 42.7097 33.5124 42.5278C33.4368 42.346 33.3989 42.1522 33.3989 41.9463C33.3989 41.7431 33.4368 41.5506 33.5124 41.3687C33.5913 41.1869 33.703 41.0278 33.8477 40.8915C33.9923 40.7551 34.1682 40.6468 34.3753 40.5666C34.5857 40.4864 34.8224 40.4463 35.0854 40.4463Z" fill="#2B3945"/>
<path d="M37.4463 40.5145H38.3142L39.2856 42.7564H39.2955L40.2423 40.5145H41.1003V43.3781H40.5135V41.1682H40.5036L39.5273 43.3781H39.0194L38.043 41.1682H38.0331V43.3781H37.4463V40.5145Z" fill="#2B3945"/>
<path d="M41.9617 40.5145H43.515C43.7648 40.5145 43.9687 40.5439 44.1265 40.6027C44.2843 40.6615 44.4059 40.7351 44.4914 40.8233C44.5768 40.9115 44.6344 41.0078 44.664 41.1121C44.6968 41.2163 44.7133 41.3126 44.7133 41.4008C44.7133 41.4891 44.6968 41.5853 44.664 41.6896C44.6344 41.7912 44.5768 41.8861 44.4914 41.9744C44.4059 42.0626 44.2843 42.1361 44.1265 42.195C43.9687 42.2511 43.7648 42.2792 43.515 42.2792H42.5781V43.3781H41.9617V40.5145ZM42.5781 41.8701H43.4805C43.5495 41.8701 43.6202 41.8621 43.6925 41.846C43.7648 41.83 43.8306 41.8046 43.8898 41.7698C43.9522 41.7324 44.0015 41.6843 44.0377 41.6254C44.0771 41.5639 44.0969 41.4877 44.0969 41.3968C44.0969 41.3032 44.0804 41.2257 44.0476 41.1642C44.0147 41.1027 43.9703 41.0546 43.9144 41.0198C43.8585 40.9824 43.7944 40.957 43.7221 40.9436C43.6498 40.9302 43.5725 40.9236 43.4903 40.9236H42.5781V41.8701Z" fill="#2B3945"/>
<path d="M45.374 40.5145H45.9904V42.945H47.7804V43.3781H45.374V40.5145Z" fill="#2B3945"/>
<path d="M48.3289 40.5145H48.9453V43.3781H48.3289V40.5145Z" fill="#2B3945"/>
<path d="M50.7665 40.5145H51.4223L52.7784 43.3781H52.1176L51.7872 42.6201H50.3818L50.0515 43.3781H49.4153L50.7665 40.5145ZM50.5495 42.2391H51.6245L51.0969 41.0078H51.0821L50.5495 42.2391Z" fill="#2B3945"/>
<path d="M53.2123 40.5145H53.8632L55.4708 42.6241H55.4807V40.5145H56.0675V43.3781H55.4166L53.8139 41.2725H53.7991V43.3781H53.2123V40.5145Z" fill="#2B3945"/>
<path d="M56.5837 40.5145H59.4339V40.9476H58.3145V43.3781H57.6981V40.9476H56.5837V40.5145Z" fill="#2B3945"/>
</g>
<defs>
<clipPath id="clip0_339_344">
<rect width="56.25" height="21.4286" fill="white" transform="translate(182.143 26.7856)"/>
</clipPath>
<clipPath id="clip1_339_344">
<rect width="65.625" height="24.1071" fill="white" transform="translate(0 25.4463)"/>
</clipPath>
</defs>
</svg>
